<svg xmlns="http://www.w3.org/2000/svg" viewBox="0 0 1906 464" role="img" aria-labelledby="title">
<title id="title">Verbivore horizontal logo white</title>
<!--
Verbivore logo vectorized from the supplied transparent PNG.
Paths are editable. Background is transparent.
Original colors: teal #6BBBB4, dark teal #295E5E.
-->
<path d="M34 23 L21 36 L11 51 L4 67 L2 82 L0 83 L0 195 L20 179 L38 167 L66 152 L85 145 L114 140 L135 141 L146 144 L151 144 L171 151 L194 163 L218 179 L256 208 L258 208 L274 220 L276 220 L294 231 L310 237 L315 237 L325 240 L348 240 L358 237 L363 237 L382 229 L400 218 L410 207 L414 199 L417 188 L417 168 L414 156 L408 149 L404 149 L399 152 L386 152 L375 149 L371 146 L370 143 L371 138 L369 136 L370 129 L381 116 L387 115 L391 112 L395 112 L403 115 L412 115 L415 121 L428 135 L440 158 L444 176 L444 195 L440 215 L434 228 L434 231 L421 250 L404 266 L385 279 L359 292 L356 292 L344 298 L340 298 L328 303 L319 304 L300 309 L295 314 L294 341 L297 354 L298 374 L300 380 L314 394 L314 397 L311 401 L305 400 L300 402 L280 403 L276 398 L276 377 L274 372 L260 352 L259 341 L261 336 L261 330 L258 326 L254 326 L250 329 L242 339 L241 365 L242 373 L245 381 L259 396 L261 401 L259 403 L247 403 L246 404 L244 403 L224 403 L221 402 L217 398 L216 388 L212 380 L204 355 L203 341 L205 337 L205 332 L202 329 L196 327 L182 326 L170 322 L151 322 L134 326 L135 329 L134 344 L131 359 L126 372 L126 379 L143 400 L141 402 L129 402 L128 403 L121 402 L90 403 L87 400 L89 383 L89 362 L86 344 L87 337 L86 329 L82 329 L78 333 L73 349 L65 366 L65 375 L71 387 L71 394 L63 398 L56 396 L45 397 L31 395 L27 391 L27 382 L33 371 L31 361 L31 349 L35 332 L23 327 L2 327 L0 328 L0 382 L2 383 L4 398 L9 410 L15 421 L24 433 L31 440 L46 451 L58 457 L80 463 L383 463 L405 457 L418 450 L429 442 L441 430 L454 410 L460 393 L462 378 L462 88 L460 73 L455 61 L455 58 L448 45 L439 33 L425 20 L404 8 L387 3 L371 2 L370 0 L92 0 L91 2 L81 2 L59 8 L45 15 Z M1191 96 L1180 104 L1174 115 L1173 129 L1175 137 L1179 144 L1184 149 L1193 154 L1202 156 L1216 154 L1226 148 L1234 137 L1235 133 L1234 112 L1229 104 L1218 96 L1212 94 L1197 94 Z M201 180 L189 171 L165 159 L141 153 L110 153 L84 159 L52 173 L18 194 L3 205 L3 207 L9 202 L11 202 L26 192 L49 180 L80 168 L106 162 L116 161 L151 162 L174 168 Z" fill="#FFFFFF" fill-rule="evenodd"/>
<path d="M989 99 L989 352 L990 354 L992 353 L1011 359 L1015 358 L1017 360 L1021 359 L1045 363 L1078 363 L1089 361 L1093 359 L1095 360 L1112 353 L1124 346 L1136 335 L1145 322 L1153 305 L1152 303 L1155 296 L1158 279 L1157 269 L1158 256 L1153 228 L1147 216 L1147 213 L1133 193 L1131 193 L1119 183 L1103 176 L1101 177 L1100 175 L1097 176 L1090 174 L1066 174 L1060 176 L1057 175 L1043 181 L1040 180 L1040 91 Z M1506 172 L1496 173 L1486 176 L1484 175 L1465 183 L1462 186 L1457 188 L1440 204 L1434 215 L1431 218 L1423 239 L1424 241 L1422 246 L1420 260 L1420 276 L1422 290 L1424 295 L1423 297 L1429 311 L1429 314 L1438 330 L1446 338 L1447 341 L1449 341 L1461 351 L1480 360 L1502 364 L1518 364 L1530 362 L1538 359 L1540 360 L1557 352 L1563 347 L1565 347 L1583 328 L1584 324 L1589 317 L1589 314 L1595 301 L1595 295 L1598 284 L1599 262 L1597 246 L1594 237 L1595 235 L1590 225 L1590 222 L1582 208 L1563 188 L1556 185 L1551 181 L1548 181 L1538 176 L1523 173 Z M697 196 L689 205 L686 211 L684 212 L684 215 L679 222 L672 241 L673 245 L670 259 L670 279 L673 294 L672 296 L678 312 L678 315 L684 324 L684 326 L690 332 L692 336 L702 345 L714 353 L719 354 L731 360 L733 359 L742 362 L756 364 L776 364 L799 361 L805 359 L808 360 L809 358 L812 359 L824 354 L830 353 L826 335 L827 332 L823 310 L809 316 L807 315 L792 319 L765 320 L754 318 L741 313 L733 307 L725 296 L722 287 L724 284 L839 284 L840 278 L840 252 L838 243 L839 239 L837 238 L838 235 L833 222 L833 218 L825 204 L816 193 L801 182 L784 175 L782 176 L771 173 L754 172 L744 173 L735 176 L733 175 L713 184 Z M1773 187 L1760 198 L1750 211 L1749 215 L1743 224 L1743 227 L1737 242 L1738 245 L1735 262 L1735 277 L1738 293 L1737 296 L1740 306 L1744 313 L1744 316 L1755 334 L1765 342 L1768 346 L1770 346 L1771 348 L1776 350 L1779 353 L1784 354 L1794 359 L1799 359 L1813 363 L1822 364 L1851 363 L1870 359 L1873 360 L1874 358 L1877 359 L1889 354 L1895 353 L1888 311 L1874 316 L1872 315 L1857 319 L1848 320 L1824 319 L1810 315 L1800 309 L1792 300 L1788 290 L1789 284 L1904 284 L1905 281 L1905 250 L1903 242 L1904 238 L1902 237 L1903 235 L1902 230 L1897 219 L1897 216 L1892 209 L1892 206 L1881 193 L1866 182 L1849 175 L1847 176 L1842 174 L1826 172 L1810 173 L1800 176 L1798 175 Z M1242 177 L1243 180 L1242 182 L1249 199 L1248 201 L1254 215 L1254 219 L1260 233 L1260 237 L1266 250 L1266 254 L1271 264 L1272 270 L1277 279 L1277 283 L1284 296 L1284 300 L1289 309 L1289 312 L1295 322 L1295 325 L1311 358 L1355 358 L1368 332 L1369 327 L1374 319 L1374 316 L1385 293 L1390 277 L1392 276 L1392 272 L1396 265 L1398 256 L1403 246 L1404 239 L1409 229 L1408 227 L1415 211 L1414 209 L1420 195 L1421 187 L1425 177 L1371 177 L1370 181 L1371 183 L1365 199 L1365 204 L1359 219 L1360 221 L1353 239 L1352 246 L1347 257 L1348 259 L1342 272 L1342 276 L1335 294 L1332 292 L1328 284 L1328 280 L1323 269 L1322 262 L1315 245 L1316 243 L1310 228 L1310 224 L1304 209 L1304 204 L1299 192 L1299 186 L1296 177 Z M492 177 L492 182 L498 197 L498 201 L504 216 L504 220 L508 228 L509 235 L514 245 L515 252 L521 264 L521 268 L525 275 L529 288 L532 292 L533 298 L538 307 L538 310 L544 320 L546 327 L552 338 L552 341 L561 358 L605 358 L618 332 L618 329 L622 323 L622 320 L624 319 L624 316 L628 309 L628 306 L632 299 L634 291 L647 262 L647 258 L658 231 L659 224 L664 213 L664 209 L675 177 L621 177 L620 186 L614 201 L614 206 L609 218 L608 226 L603 238 L603 242 L597 256 L597 261 L584 294 L582 293 L576 279 L577 277 L570 261 L571 259 L567 251 L566 244 L559 226 L560 224 L558 221 L554 209 L554 205 L548 189 L548 183 L546 177 Z M1737 180 L1724 176 L1721 177 L1719 175 L1715 176 L1706 174 L1676 174 L1667 176 L1662 175 L1661 177 L1657 176 L1642 181 L1633 182 L1620 187 L1620 358 L1671 358 L1671 221 L1675 219 L1687 217 L1701 217 L1729 222 L1735 198 L1734 195 L1738 182 Z M979 180 L966 176 L962 177 L961 175 L957 176 L948 174 L918 174 L909 176 L904 175 L903 177 L899 176 L880 182 L878 181 L862 187 L862 358 L913 358 L913 221 L916 220 L917 218 L921 219 L929 217 L943 217 L951 219 L955 218 L956 220 L959 219 L971 222 L973 218 L972 214 L979 188 L978 186 Z M1180 177 L1180 358 L1230 358 L1230 177 Z M1506 216 L1518 217 L1532 224 L1539 233 L1546 252 L1545 254 L1546 258 L1545 281 L1546 283 L1542 296 L1539 300 L1539 303 L1528 315 L1515 320 L1504 320 L1491 315 L1480 303 L1474 288 L1472 278 L1473 251 L1479 234 L1491 221 L1494 219 Z M1060 217 L1076 217 L1089 222 L1098 231 L1104 245 L1103 247 L1105 254 L1105 278 L1103 284 L1103 290 L1099 299 L1097 300 L1093 308 L1090 311 L1088 311 L1086 314 L1069 320 L1052 320 L1044 319 L1040 317 L1040 225 L1045 221 Z M1788 245 L1793 231 L1803 220 L1814 215 L1826 214 L1835 216 L1841 219 L1849 227 L1853 233 L1853 237 L1855 238 L1854 240 L1856 249 L1855 250 L1789 250 Z M722 248 L730 228 L738 220 L746 216 L754 214 L766 215 L777 220 L787 232 L790 239 L789 241 L791 247 L790 250 L723 250 Z" fill="#FFFFFF" fill-rule="evenodd"/>
</svg>
